<?xml version="1.0" encoding="UTF-8" standalone="no"?>
<!-- Generator: Adobe Illustrator 16.0.0, SVG Export Plug-In . SVG Version: 6.00 Build 0)  -->

<svg
   xmlns:dc="http://purl.org/dc/elements/1.1/"
   xmlns:cc="http://creativecommons.org/ns#"
   xmlns:rdf="http://www.w3.org/1999/02/22-rdf-syntax-ns#"
   xmlns:svg="http://www.w3.org/2000/svg"
   xmlns="http://www.w3.org/2000/svg"
   xmlns:xlink="http://www.w3.org/1999/xlink"
   xmlns:sodipodi="http://sodipodi.sourceforge.net/DTD/sodipodi-0.dtd"
   xmlns:inkscape="http://www.inkscape.org/namespaces/inkscape"
   version="1.1"
   id="Layer_1"
   x="0px"
   y="0px"
   width="1000px"
   height="295.403px"
   viewBox="0 0 1000 295.403"
   enable-background="new 0 0 1000 295.403"
   xml:space="preserve"
   inkscape:version="0.91 r13725"
   sodipodi:docname="logo-white-no-slogan.svg"><metadata
     id="metadata87"><rdf:RDF><cc:Work
         rdf:about=""><dc:format>image/svg+xml</dc:format><dc:type
           rdf:resource="http://purl.org/dc/dcmitype/StillImage" /><dc:title></dc:title></cc:Work></rdf:RDF></metadata><defs
     id="defs85" /><sodipodi:namedview
     pagecolor="#ffffff"
     bordercolor="#666666"
     borderopacity="1"
     objecttolerance="10"
     gridtolerance="10"
     guidetolerance="10"
     inkscape:pageopacity="0"
     inkscape:pageshadow="2"
     inkscape:window-width="1185"
     inkscape:window-height="616"
     id="namedview83"
     showgrid="false"
     inkscape:zoom="0.408"
     inkscape:cx="357.66807"
     inkscape:cy="147.70151"
     inkscape:window-x="1781"
     inkscape:window-y="99"
     inkscape:window-maximized="0"
     inkscape:current-layer="g3" /><g
     id="g3"><g
       id="g5"><g
         id="g7"><path
           fill="#F7924F"
           d="M127.576,52.279c0,4.713-3.82,8.536-8.536,8.536H98.567c-4.713,0-8.538-3.823-8.538-8.536V31.81     c0-4.717,3.825-8.536,8.538-8.536h20.473c4.716,0,8.536,3.819,8.536,8.536V52.279z"
           id="path9" /><path
           fill="#F16C4F"
           d="M141.662,30.951c0,3.532-2.871,6.407-6.407,6.407h-15.355c-3.533,0-6.404-2.875-6.404-6.407V15.591     c0-3.532,2.871-6.398,6.404-6.398h15.355c3.536,0,6.407,2.867,6.407,6.398V30.951z"
           id="path11" /><g
           id="g13"
           style="fill:#ffffff"><g
             id="g15"
             style="fill:#ffffff"><path
               fill="#424243"
               d="M233.965,100.645v17.379h-40.061c-3.931,0-7.221,0.438-9.866,1.324       c-2.652,0.888-4.765,2.088-6.332,3.608c-1.576,1.524-2.682,3.29-3.319,5.31c-0.636,2.012-0.952,4.188-0.952,6.547v9.42h59.945       v16.506h-59.945v39.321h-17.38v-65.097c0-5.014,0.663-9.597,1.987-13.779c1.328-4.172,3.466-7.778,6.4-10.818       c2.953-3.042,6.756-5.432,11.417-7.142c4.667-1.714,10.293-2.58,16.867-2.58H233.965z"
               id="path17"
               style="fill:#ffffff" /><path
               fill="#424243"
               d="M269.314,100.645v99.416h-15.613v-99.416H269.314z"
               id="path19"
               style="fill:#ffffff" /><path
               fill="#424243"
               d="M338.094,122.295c10.31,0,18.511,3.216,24.6,9.639c6.087,6.436,9.127,16.184,9.127,29.241       c0,13.16-3.04,22.929-9.127,29.311c-6.089,6.378-14.29,9.575-24.6,9.575h-16.35c-10.406,0-18.629-3.197-24.67-9.575       c-6.039-6.382-9.059-16.151-9.059-29.311c0-13.158,3.02-22.927,9.059-29.307c6.041-6.38,14.264-9.573,24.67-9.573H338.094z        M323.219,137.323c-6.773,0-11.714,1.861-14.802,5.591c-3.094,3.732-4.641,9.82-4.641,18.261       c0,8.451,1.547,14.515,4.641,18.191c3.088,3.685,8.028,5.527,14.802,5.527h13.402c6.78,0,11.706-1.842,14.809-5.527       c3.087-3.676,4.636-9.74,4.636-18.191c0-8.441-1.549-14.529-4.636-18.261c-3.103-3.73-8.028-5.591-14.809-5.591H323.219z"
               id="path21"
               style="fill:#ffffff" /><path
               fill="#424243"
               d="M396.27,122.295l6.927,60.681c0.19,1.668,0.708,2.924,1.545,3.75c0.83,0.843,2.188,1.256,4.052,1.256       c1.767,0,3.063-0.372,3.899-1.107c0.832-0.727,1.45-1.792,1.838-3.156l11.046-47.145c1.186-5.199,3.486-9.123,6.925-11.779       c3.44-2.649,8.247-3.974,14.437-3.974c6.182,0,10.9,1.324,14.142,3.974c3.238,2.656,5.448,6.58,6.623,11.779l10.457,47.145       c0.59,2.842,2.553,4.263,5.894,4.263c1.767,0,3.047-0.413,3.829-1.256c0.783-0.826,1.281-2.082,1.471-3.75l8.108-60.681h16.928       l-8.689,61.565c-0.786,5.399-2.848,9.748-6.181,13.032c-3.344,3.292-8.547,4.932-15.614,4.932       c-6.095,0-10.808-1.322-14.139-3.978c-3.338-2.644-5.602-6.667-6.78-12.074L452.53,138.5c-0.295-1.38-0.96-2.361-1.989-2.947       c-1.032-0.589-2.277-0.882-3.754-0.882c-3.239,0-5.151,1.272-5.744,3.829l-11.041,47.273c-1.282,5.407-3.637,9.43-7.076,12.074       c-3.433,2.656-8.248,3.978-14.432,3.978c-3.631,0-6.7-0.434-9.207-1.322c-2.499-0.88-4.561-2.11-6.182-3.68       c-1.624-1.562-2.882-3.461-3.755-5.667c-0.886-2.214-1.526-4.643-1.917-7.294l-8.1-61.565H396.27z"
               id="path23"
               style="fill:#ffffff" /><path
               fill="#424243"
               d="M594.804,122.295v15.027h-43c-3.639,0-6.245,0.735-7.807,2.204c-1.578,1.468-2.363,3.676-2.363,6.627       c0,2.755,0.761,4.837,2.289,6.262c1.52,1.419,4.444,2.125,8.757,2.125h18.27c5.398,0,9.843,0.599,13.329,1.774       c3.482,1.177,6.229,2.751,8.245,4.717c2.02,1.968,3.412,4.265,4.196,6.925c0.789,2.644,1.182,5.494,1.182,8.542       c0,3.429-0.467,6.601-1.404,9.497c-0.926,2.896-2.429,5.374-4.486,7.431c-2.061,2.065-4.713,3.685-7.955,4.866       c-3.247,1.173-7.121,1.768-11.632,1.768h-45.218v-15.167h45.218c3.627,0,6.229-0.661,7.803-1.987       c1.565-1.334,2.358-3.515,2.358-6.555c0-3.14-0.867-5.382-2.577-6.7c-1.719-1.33-4.544-1.999-8.468-1.999h-18.415       c-5.395,0-9.822-0.607-13.251-1.834c-3.437-1.227-6.171-2.892-8.183-5.004s-3.407-4.543-4.188-7.294       c-0.789-2.751-1.177-5.595-1.177-8.546c0-6.971,1.958-12.487,5.882-16.57c3.933-4.067,10.409-6.107,19.447-6.107H594.804z"
               id="path25"
               style="fill:#ffffff" /><path
               fill="#424243"
               d="M666.974,122.295c9.228,0,15.911,2.09,20.033,6.26c4.123,4.176,6.188,10.037,6.188,17.598       c0,7.173-2.011,12.693-6.047,16.574c-4.015,3.875-10.802,5.816-20.318,5.816h-36.974v5.593c0,3.147,0.905,5.725,2.727,7.732       c1.817,2.016,4.887,3.024,9.211,3.024h47.577v15.167h-47.577c-4.915,0-9.063-0.636-12.441-1.917       c-3.399-1.28-6.188-3.065-8.397-5.37c-2.218-2.309-3.813-5.015-4.795-8.104c-0.976-3.098-1.471-6.501-1.471-10.244v-26.502       c0-3.639,0.495-7.026,1.471-10.159c0.982-3.146,2.577-5.868,4.795-8.183c2.21-2.301,4.998-4.094,8.397-5.372       c3.379-1.272,7.526-1.915,12.441-1.915H666.974z M629.855,156.315h36.531c4.23,0,7.188-0.833,8.906-2.503       c1.723-1.66,2.581-3.928,2.581-6.776c0-2.945-0.88-5.293-2.655-7.059c-1.769-1.778-4.561-2.654-8.39-2.654h-25.036       c-4.324,0-7.394,1.028-9.211,3.085c-1.821,2.074-2.727,4.62-2.727,7.66V156.315z"
               id="path27"
               style="fill:#ffffff" /><path
               fill="#424243"
               d="M755.344,122.295c13.251,0,23.099,2.97,29.534,8.908c6.428,5.948,9.649,14.317,9.649,25.112v43.745       h-15.763v-43.745c0-6.184-1.842-10.896-5.526-14.131c-3.677-3.243-9.649-4.862-17.895-4.862h-25.478       c-1.276,0-1.921,0.735-1.921,2.204v60.534h-15.609v-65.687c0-4.614,0.835-7.78,2.503-9.502       c1.673-1.712,4.474-2.576,8.402-2.576H755.344z"
               id="path29"
               style="fill:#ffffff" /><path
               fill="#424243"
               d="M881.271,122.295v15.027h-43.008c-3.631,0-6.233,0.735-7.808,2.204       c-1.573,1.468-2.358,3.676-2.358,6.627c0,2.755,0.765,4.837,2.284,6.262c1.524,1.419,4.444,2.125,8.766,2.125h18.266       c5.402,0,9.847,0.599,13.325,1.774c3.486,1.177,6.237,2.751,8.253,4.717c2.008,1.968,3.403,4.265,4.188,6.925       c0.793,2.644,1.182,5.494,1.182,8.542c0,3.429-0.463,6.601-1.393,9.497c-0.938,2.896-2.433,5.374-4.498,7.431       c-2.057,2.065-4.709,3.685-7.947,4.866c-3.238,1.173-7.121,1.768-11.641,1.768h-45.209v-15.167h45.209       c3.631,0,6.237-0.661,7.812-1.987c1.565-1.334,2.358-3.515,2.358-6.555c0-3.14-0.867-5.382-2.581-6.7       c-1.719-1.33-4.548-1.999-8.473-1.999h-18.405c-5.407,0-9.823-0.607-13.252-1.834c-3.448-1.227-6.167-2.892-8.187-5.004       c-2.012-2.113-3.412-4.543-4.196-7.294c-0.777-2.751-1.182-5.595-1.182-8.546c0-6.971,1.966-12.487,5.898-16.57       c3.933-4.067,10.405-6.107,19.443-6.107H881.271z"
               id="path31"
               style="fill:#ffffff" /><path
               fill="#424243"
               d="M953.44,122.295c9.228,0,15.903,2.09,20.025,6.26c4.131,4.176,6.188,10.037,6.188,17.598       c0,7.173-2.008,12.693-6.03,16.574c-4.036,3.875-10.806,5.816-20.331,5.816h-36.97v5.593c0,3.147,0.905,5.725,2.727,7.732       c1.81,2.016,4.887,3.024,9.211,3.024h47.577v15.167H928.26c-4.915,0-9.063-0.636-12.449-1.917       c-3.392-1.28-6.188-3.065-8.401-5.37c-2.206-2.309-3.801-5.015-4.783-8.104c-0.983-3.098-1.467-6.501-1.467-10.244v-26.502       c0-3.639,0.483-7.026,1.467-10.159c0.982-3.146,2.577-5.868,4.783-8.183c2.214-2.301,5.01-4.094,8.401-5.372       c3.387-1.272,7.534-1.915,12.449-1.915H953.44z M916.322,156.315h36.531c4.218,0,7.191-0.833,8.914-2.503       c1.71-1.66,2.569-3.928,2.569-6.776c0-2.945-0.884-5.293-2.647-7.059c-1.764-1.778-4.572-2.654-8.397-2.654H928.26       c-4.324,0-7.401,1.028-9.211,3.085c-1.821,2.074-2.727,4.62-2.727,7.66V156.315z"
               id="path33"
               style="fill:#ffffff" /></g></g><path
           fill="#F8AD7A"
           d="M85.607,99.057c0,6.291-5.093,11.388-11.376,11.388H46.926c-6.282,0-11.376-5.097-11.376-11.388V71.764     c0-6.287,5.094-11.384,11.376-11.384h27.306c6.283,0,11.376,5.097,11.376,11.384V99.057z"
           id="path35" /><path
           fill="#F7924F"
           d="M57.893,121.752c0,4.717-3.82,8.54-8.533,8.54H28.882c-4.718,0-8.536-3.823-8.536-8.54v-20.476     c0-4.707,3.818-8.532,8.536-8.532h20.478c4.713,0,8.533,3.825,8.533,8.532V121.752z"
           id="path37" /><path
           fill="#F7924F"
           d="M184.811,77.8c0,4.707-3.819,8.536-8.536,8.536h-20.472c-4.717,0-8.536-3.829-8.536-8.536V57.321     c0-4.715,3.819-8.536,8.536-8.536h20.472c4.717,0,8.536,3.821,8.536,8.536V77.8z"
           id="path39" /><path
           fill="#F16C4F"
           d="M133.861,96.834c0,3.536-2.867,6.404-6.411,6.404h-15.347c-3.536,0-6.403-2.869-6.403-6.404V81.477     c0-3.532,2.867-6.402,6.403-6.402h15.347c3.544,0,6.411,2.871,6.411,6.402V96.834z"
           id="path41" /><path
           fill="#F7924F"
           d="M118.623,147.459c0,4.717-3.822,8.54-8.536,8.54H89.612c-4.711,0-8.536-3.823-8.536-8.54v-20.47     c0-4.717,3.825-8.534,8.536-8.534h20.475c4.714,0,8.536,3.817,8.536,8.534V147.459z"
           id="path43" /><path
           fill="#F16C4F"
           d="M131.959,161.299c0,3.536-2.862,6.398-6.402,6.398h-15.35c-3.54,0-6.402-2.863-6.402-6.398v-15.36     c0-3.531,2.862-6.402,6.402-6.402h15.35c3.54,0,6.402,2.871,6.402,6.402V161.299z"
           id="path45" /><g
           id="g47"><defs
             id="defs49"><path
               id="SVGID_1_"
               d="M57.893,121.752c0,4.717-3.82,8.54-8.533,8.54H28.882c-4.718,0-8.536-3.823-8.536-8.54v-20.476       c0-4.707,3.818-8.532,8.536-8.532h20.478c4.713,0,8.533,3.825,8.533,8.532V121.752z" /></defs><clipPath
             id="SVGID_2_"><use
               xlink:href="#SVGID_1_"
               overflow="visible"
               id="use53" /></clipPath><path
             clip-path="url(#SVGID_2_)"
             fill="#F58232"
             d="M85.607,99.057c0,6.291-5.093,11.388-11.376,11.388H46.926      c-6.282,0-11.376-5.097-11.376-11.388V71.764c0-6.287,5.094-11.384,11.376-11.384h27.306c6.283,0,11.376,5.097,11.376,11.384      V99.057z"
             id="path55" /></g><g
           id="g57"><defs
             id="defs59"><path
               id="SVGID_3_"
               d="M141.662,30.951c0,3.532-2.871,6.407-6.407,6.407h-15.355c-3.533,0-6.404-2.875-6.404-6.407V15.591       c0-3.532,2.871-6.398,6.404-6.398h15.355c3.536,0,6.407,2.867,6.407,6.398V30.951z" /></defs><clipPath
             id="SVGID_4_"><use
               xlink:href="#SVGID_3_"
               overflow="visible"
               id="use63" /></clipPath><path
             clip-path="url(#SVGID_4_)"
             fill="#F1582C"
             d="M127.576,52.279c0,4.713-3.82,8.536-8.536,8.536H98.567      c-4.713,0-8.538-3.823-8.538-8.536V31.81c0-4.717,3.825-8.536,8.538-8.536h20.473c4.716,0,8.536,3.819,8.536,8.536V52.279z"
             id="path65" /></g><g
           id="g67"><defs
             id="defs69"><path
               id="SVGID_5_"
               d="M131.959,161.299c0,3.536-2.862,6.398-6.402,6.398h-15.35c-3.54,0-6.402-2.863-6.402-6.398v-15.36       c0-3.531,2.862-6.402,6.402-6.402h15.35c3.54,0,6.402,2.871,6.402,6.402V161.299z" /></defs><clipPath
             id="SVGID_6_"><use
               xlink:href="#SVGID_5_"
               overflow="visible"
               id="use73" /></clipPath><path
             clip-path="url(#SVGID_6_)"
             fill="#F1582C"
             d="M118.623,147.459c0,4.717-3.822,8.54-8.536,8.54H89.612      c-4.711,0-8.536-3.823-8.536-8.54v-20.47c0-4.717,3.825-8.534,8.536-8.534h20.475c4.714,0,8.536,3.817,8.536,8.534V147.459z"
             id="path75" /></g></g></g><g
       id="g77" /></g></svg>